<svg width="173" height="194" viewBox="0 0 173 194" fill="none" xmlns="http://www.w3.org/2000/svg">
<path d="M41.026 120.831V121.498H41.6926H57.8062H57.8155L57.8248 121.497C60.5862 121.42 62.7741 120.689 64.2687 119.2C65.7671 117.708 66.4636 115.559 66.4636 112.873C66.4636 110.127 65.77 107.946 64.2676 106.456C62.7662 104.968 60.5699 104.282 57.8062 104.282H41.6926H41.026V104.948V120.831ZM41.026 152.959V153.626H41.6926H65.5658H65.5739L65.5819 153.625C68.4054 153.557 70.6418 152.835 72.1709 151.35C73.7064 149.858 74.4213 147.703 74.4213 145.001C74.4213 142.163 73.7333 139.911 72.2421 138.371C70.747 136.827 68.5553 136.113 65.797 136.113H41.6926H41.026V136.779V152.959ZM26.4108 168.175V89.6667H57.8062C63.4172 89.6667 68.4489 91.4151 72.9147 94.9074L72.919 94.9106C78.3452 99.084 81.0788 105.042 81.0788 112.873C81.0788 117.25 80.1509 121.083 78.3217 124.406L78.0119 124.969L78.5628 125.299C85.5381 129.482 89.0365 136.012 89.0365 145.001C89.0365 152.73 86.3051 158.685 80.8704 162.969L80.8648 162.973C76.5635 166.44 71.5451 168.175 65.797 168.175H26.4108Z" fill="white" stroke="white" strokeWidth="1.33333"/>
<mask id="mask0_611_1993" style="mask-type:luminance" maskUnits="userSpaceOnUse" x="56" y="0" width="79" height="63">
<path d="M57.3734 0.7191H133.598V61.983H57.3734V0.7191Z" fill="white" stroke="white" strokeWidth="1.4382"/>
</mask>
<g mask="url(#mask0_611_1993)">
<path d="M62.0782 60.2087H59.5996L128.055 3.40566L128.062 3.39991L128.069 3.39402C129.036 2.55541 130.508 2.66609 131.348 3.65487C132.192 4.65442 132.077 6.10178 131.091 6.93768C131.09 6.93852 131.089 6.93936 131.088 6.9402L66.1354 60.7117C64.8247 60.3815 63.4734 60.2087 62.0782 60.2087Z" fill="white" stroke="white" strokeWidth="1.66408"/>
</g>
<path d="M116.067 121.756V122.423H116.734H132.847H132.857L132.866 122.423C135.627 122.346 137.815 121.615 139.31 120.126C140.808 118.633 141.505 116.484 141.505 113.799C141.505 111.053 140.811 108.871 139.309 107.382C137.807 105.893 135.611 105.207 132.847 105.207H116.734H116.067V105.874V121.756ZM116.067 153.885V154.551H116.734H140.607H140.615L140.623 154.551C143.446 154.483 145.683 153.761 147.212 152.275C148.747 150.784 149.462 148.628 149.462 145.927C149.462 143.088 148.774 140.837 147.283 139.297C145.788 137.753 143.596 137.038 140.838 137.038H116.734H116.067V137.705V153.885ZM101.452 169.1V90.5922H132.847C138.458 90.5922 143.49 92.3407 147.956 95.8329L147.96 95.8362C153.386 100.01 156.12 105.967 156.12 113.799C156.12 118.176 155.192 122.008 153.363 125.331L153.053 125.894L153.604 126.224C160.579 130.408 164.078 136.938 164.078 145.927C164.078 153.655 161.346 159.61 155.911 163.894L155.906 163.899C151.605 167.365 146.586 169.1 140.838 169.1H101.452Z" fill="white" stroke="white" strokeWidth="1.33333"/>
<path d="M4 68.4636V190.49V68.4636Z" fill="white"/>
<path d="M4 68.4636V190.49" stroke="white" strokeWidth="7" strokeLinecap="round"/>
<path d="M5.33301 68.2292L168.745 68" stroke="white" strokeWidth="7" strokeLinecap="round"/>
<path d="M21.5177 32.8508L21.5177 32.8508L21.522 32.8549L51.0924 60.2085H47.9973C46.8782 60.2085 45.7703 60.3085 44.6902 60.5355L18.2985 36.2435C17.373 35.3721 17.3302 33.8729 18.2085 32.9369C19.0774 32.0111 20.5785 31.9694 21.5177 32.8508Z" fill="white" stroke="white" strokeWidth="1.66408"/>
<path d="M49.3966 62.8372H59.7719C59.9065 62.8372 60.0171 62.8372 60.1469 62.8372C63.0893 62.9525 65.6567 64.5055 67.1712 66.8084C63.1999 66.8661 59.2286 66.9238 55.2573 66.9959C54.791 66.9959 54.3246 67.0152 53.8342 67.0152C49.7908 67.0921 45.7426 67.1642 41.6992 67.2604C43.2329 64.6209 46.0984 62.8372 49.3966 62.8372Z" fill="white"/>
</svg>
